<?xml version="1.0" encoding="iso-8859-1"?>
<!-- Generator: Adobe Illustrator 19.0.0, SVG Export Plug-In . SVG Version: 6.00 Build 0)  -->
<svg version="1.1" id="Layer_1" xmlns="http://www.w3.org/2000/svg" xmlns:xlink="http://www.w3.org/1999/xlink" x="0px" y="0px"
	 viewBox="0 0 511.999 511.999" style="enable-background:new 0 0 511.999 511.999;" xml:space="preserve">
<g>
	<rect x="362.11" y="260.309" style="fill:#F7B239;" width="31.057" height="34.515"/>
	<rect x="118.823" y="260.309" style="fill:#F7B239;" width="31.057" height="34.515"/>
</g>
<path style="fill:#F95428;" d="M302.584,325.88h-93.171c0-25.73,20.861-46.591,46.591-46.591S302.584,300.15,302.584,325.88z"/>
<g>
	<path style="fill:#F7B239;" d="M204.231,93.136c16.206,0,29.334,13.139,29.334,29.334c0,16.206-13.128,29.334-29.334,29.334
		c-16.194,0-29.322-13.128-29.322-29.334C174.908,106.275,188.036,93.136,204.231,93.136z"/>
	<path style="fill:#F7B239;" d="M307.766,93.136c16.194,0,29.334,13.139,29.334,29.334c0,16.206-13.139,29.334-29.334,29.334
		c-16.206,0-29.334-13.128-29.334-29.334C278.432,106.275,291.56,93.136,307.766,93.136z"/>
</g>
<rect x="193.013" y="200.299" style="fill:#E09B2D;" width="125.963" height="34.135"/>
<g>
	<rect x="306.039" y="371.421" style="fill:#F7B239;" width="32.781" height="92.5"/>
	<rect x="173.17" y="371.421" style="fill:#F7B239;" width="32.792" height="92.5"/>
</g>
<g>
	<polygon style="fill:#F95428;" points="224.947,463.919 224.947,503.605 154.192,503.605 154.192,463.919 173.174,463.919 
		205.966,463.919 	"/>
	<polygon style="fill:#F95428;" points="357.804,463.919 357.804,503.605 287.061,503.605 287.061,463.919 306.042,463.919 
		338.823,463.919 	"/>
	<polygon style="fill:#F95428;" points="424.462,234.432 424.462,403.528 393.17,403.528 393.17,294.823 393.17,260.307 
		393.17,234.432 	"/>
	<polygon style="fill:#F95428;" points="118.826,294.823 118.826,403.528 87.534,403.528 87.534,234.432 118.826,234.432 
		118.826,260.307 	"/>
</g>
<path style="fill:#2BA5F7;" d="M362.113,294.823v76.596h-23.29v-0.011h-32.781v0.011H205.966v-0.011h-32.792v0.011h-23.29v-76.596
	v-34.515v-25.875h43.133H318.98h43.133v25.875V294.823z M209.413,325.88h93.171c0-25.73-20.85-46.591-46.58-46.591
	C230.274,279.288,209.413,300.15,209.413,325.88z"/>
<path style="fill:#E09B2D;" d="M306.042,371.419v29.166h32.781v-29.166H306.042z M173.174,400.585h32.792v-29.166h-32.792V400.585z"
	/>
<path style="fill:#F95428;" d="M362.113,66.119v134.178H318.98H193.017h-43.133V66.119c0-15.68,12.714-28.394,28.394-28.394h77.727
	h77.716C349.41,37.725,362.113,50.439,362.113,66.119z M337.1,122.469c0-16.194-13.139-29.334-29.334-29.334
	c-16.206,0-29.334,13.139-29.334,29.334c0,16.206,13.128,29.334,29.334,29.334C323.96,151.803,337.1,138.675,337.1,122.469z
	 M233.564,122.469c0-16.194-13.128-29.334-29.334-29.334c-16.194,0-29.322,13.139-29.322,29.334
	c0,16.206,13.128,29.334,29.322,29.334C220.436,151.803,233.564,138.675,233.564,122.469z"/>
<rect x="149.88" y="234.434" style="fill:#2197D8;" width="37.336" height="136.976"/>
<path style="fill:#FFFFFF;" d="M333.265,70.733h-23.502c-4.637,0-8.394-3.758-8.394-8.394s3.757-8.394,8.394-8.394h23.502
	c4.637,0,8.394,3.758,8.394,8.394S337.901,70.733,333.265,70.733z"/>
<g>
	
		<line style="fill:none;stroke:#FFFFFF;stroke-width:15;stroke-linecap:round;stroke-linejoin:round;stroke-miterlimit:10;" x1="310.325" y1="115.499" x2="310.325" y2="115.499"/>
	
		<line style="fill:none;stroke:#FFFFFF;stroke-width:15;stroke-linecap:round;stroke-linejoin:round;stroke-miterlimit:10;" x1="207.361" y1="115.499" x2="207.361" y2="115.499"/>
</g>
<g>
	<path style="fill:#333333;" d="M424.464,226.038h-31.289c-4.637,0-8.394,3.758-8.394,8.394v17.485H370.51v-17.485
		c0-4.636-3.757-8.394-8.394-8.394h-34.743v-17.351h34.743c4.637,0,8.394-3.758,8.394-8.394V66.121
		c0-20.285-16.502-36.787-36.787-36.787h-69.329V8.394c0-4.636-3.757-8.394-8.394-8.394c-4.637,0-8.394,3.758-8.394,8.394v20.939
		h-69.33c-20.285,0-36.787,16.503-36.787,36.787v134.173c0,4.636,3.757,8.394,8.394,8.394h34.744v17.351h-34.744
		c-4.637,0-8.394,3.758-8.394,8.394v17.485h-14.271v-17.485c0-4.636-3.757-8.394-8.394-8.394h-31.29
		c-4.637,0-8.394,3.758-8.394,8.394v169.096c0,4.636,3.757,8.394,8.394,8.394h31.289c4.637,0,8.394-3.758,8.394-8.394V303.215
		h14.271v68.203c0,4.636,3.757,8.394,8.394,8.394h14.9v75.713h-10.586c-4.637,0-8.394,3.758-8.394,8.394v39.686
		c0,4.636,3.757,8.394,8.394,8.394h70.744c4.637,0,8.394-3.758,8.394-8.394v-39.686c0-4.636-3.757-8.394-8.394-8.394h-10.585
		v-75.713h83.289v75.713h-10.586c-4.637,0-8.394,3.758-8.394,8.394v39.686c0,4.636,3.757,8.394,8.394,8.394h70.744
		c4.637,0,8.394-3.758,8.394-8.394v-39.686c0-4.636-3.757-8.394-8.394-8.394h-10.585v-75.713h14.9c4.637,0,8.394-3.758,8.394-8.394
		v-68.203h14.271v100.312c0,4.636,3.757,8.394,8.394,8.394h31.289c4.637,0,8.394-3.758,8.394-8.394V234.431
		C432.857,229.796,429.1,226.038,424.464,226.038z M110.43,395.134H95.929V242.826h14.501V395.134z M127.218,286.428v-17.723h14.271
		v17.723H127.218z M158.276,66.121c0-11.028,8.972-20,20-20h155.447c11.028,0,20,8.972,20,20V191.9H158.276V66.121z
		 M201.414,208.686h109.172v17.351H201.414V208.686z M216.547,495.212h-53.957v-22.898h53.957V495.212z M197.568,455.526h-15.998
		v-75.713h15.998V455.526z M349.409,495.212h-53.957v-22.898h53.957V495.212z M330.43,455.526h-15.997v-75.713h15.998
		L330.43,455.526L330.43,455.526z M353.723,363.024H158.276V242.826h195.446V363.024z M370.51,286.428v-17.723h14.271v17.723H370.51
		z M416.07,395.134h-14.501V242.826h14.501V395.134z"/>
	<path style="fill:#333333;" d="M241.963,122.47c0-20.802-16.924-37.726-37.726-37.726c-20.803,0-37.727,16.924-37.727,37.726
		s16.924,37.726,37.727,37.726C225.039,160.198,241.963,143.274,241.963,122.47z M183.297,122.47
		c0-11.545,9.394-20.939,20.94-20.939c11.545,0,20.939,9.393,20.939,20.939s-9.393,20.939-20.939,20.939
		C192.691,143.409,183.297,134.017,183.297,122.47z"/>
	<path style="fill:#333333;" d="M307.765,160.198c20.802,0,37.726-16.924,37.726-37.726s-16.924-37.727-37.726-37.727
		c-20.803,0-37.727,16.924-37.727,37.726S286.961,160.198,307.765,160.198z M307.765,101.532c11.545,0,20.939,9.393,20.939,20.939
		s-9.393,20.939-20.939,20.939s-20.94-9.393-20.94-20.939S296.218,101.532,307.765,101.532z"/>
	<path style="fill:#333333;" d="M256.001,270.9c-30.317,0-54.982,24.664-54.982,54.982c0,4.636,3.757,8.394,8.394,8.394h93.176
		c4.637,0,8.394-3.758,8.394-8.394C310.982,295.565,286.318,270.9,256.001,270.9z M218.735,317.488
		c3.835-17.036,19.089-29.8,37.265-29.8s33.43,12.764,37.265,29.8H218.735z"/>
	<circle style="fill:#333333;" cx="315.16" cy="267.215" r="8.394"/>
	<circle style="fill:#333333;" cx="196.841" cy="267.215" r="8.394"/>
</g>
<g>
	<path style="fill:#FFFFFF;" d="M336.622,352.751c-4.637,0-8.394-3.758-8.394-8.394v-55.396c0-4.636,3.757-8.394,8.394-8.394
		c4.637,0,8.394,3.758,8.394,8.394v55.396C345.015,348.994,341.257,352.751,336.622,352.751z"/>
	<circle style="fill:#FFFFFF;" cx="336.615" cy="259.862" r="8.394"/>
</g>
<g>
</g>
<g>
</g>
<g>
</g>
<g>
</g>
<g>
</g>
<g>
</g>
<g>
</g>
<g>
</g>
<g>
</g>
<g>
</g>
<g>
</g>
<g>
</g>
<g>
</g>
<g>
</g>
<g>
</g>
</svg>
